<svg xmlns="http://www.w3.org/2000/svg" viewBox="0 0 16 16"><defs><style>.cls-1{fill:#d9381e;}.cls-2{fill:#34495e;}.cls-3{opacity:0.1;}</style></defs><title>ea-icon-16</title><g id="Layer_3" data-name="Layer 3"><path class="cls-1" d="M9.54,5.83A4.23,4.23,0,0,0,7.62,0C8.7,2.66,4.67,3.21,4.67,6.66A3.33,3.33,0,1,0,10.76,4.8,1.34,1.34,0,0,1,9.54,5.83Z"/><path class="cls-1" d="M9.23,14.16c-.39-.47-.81-.92-1.23-1.36-.42.44-.84.89-1.23,1.36l-.9,1.07a3.4,3.4,0,0,0,4.26,0Z"/><path class="cls-2" d="M0,7.62v2.8a14.86,14.86,0,0,1,4.62,3.2l.23.23.62-.73c.29-.34.58-.67.91-1l.2-.22-.21-.2A17.4,17.4,0,0,0,0,7.62Z"/><path class="cls-2" d="M16,7.62a17.4,17.4,0,0,0-6.37,4.07l-.21.2.2.22c.33.34.62.67.91,1l.62.73.23-.23A14.86,14.86,0,0,1,16,10.42Z"/></g></svg>