<svg id="Layer_3" data-name="Layer 3" xmlns="http://www.w3.org/2000/svg" viewBox="0 0 32 32"><defs><style>.cls-1{fill:#34495e;}.cls-2{fill:#d9381e;}</style></defs><title>ea-icon-32</title><path class="cls-1" d="M9,29.5H9A2.5,2.5,0,0,0,11.5,32H12a1,1,0,0,0,1-1h0a1,1,0,0,0-1-1h-.5a.5.5,0,0,1-.5-.5h0a.5.5,0,0,1,.5-.5h9a.5.5,0,0,1,.5.5h0a.5.5,0,0,1-.5.5H20a1,1,0,0,0-1,1h0a1,1,0,0,0,1,1h.5A2.5,2.5,0,0,0,23,29.5h0A2.5,2.5,0,0,0,20.5,27h-9A2.5,2.5,0,0,0,9,29.5Z"/><rect class="cls-2" x="15" y="24" width="2" height="2"/><rect class="cls-2" x="15" y="14.38" width="2" height="4.88"/><path class="cls-1" d="M23,18a5,5,0,0,0-5,5v3h2V23a3.5,3.5,0,0,1,7,0h1A5,5,0,0,0,23,18Z"/><path class="cls-1" d="M9,18a5,5,0,0,1,5,5v3H12V23a3.5,3.5,0,0,0-7,0H4A5,5,0,0,1,9,18Z"/><rect class="cls-2" x="14" y="30" width="4" height="2" rx="1" ry="1"/><rect class="cls-1" x="7" y="22" width="3" height="3" rx="1.3" ry="1.3"/><rect class="cls-1" x="22" y="22" width="3" height="3" rx="1.3" ry="1.3"/><path class="cls-2" d="M17,11l1-1L16,6V4H15V6l1,2V9l-1,2-.06,1L14,14l2,2,2-2-1-2Z"/><polygon class="cls-2" points="16 1 15 0 15 0 16 0 16 1"/><polygon class="cls-2" points="17 3 16 4 16 2 17 2 17 3"/><polygon class="cls-2" points="17 15 18 16 19 18 17 20 17 23 15 23 15 20 13 18 14 16 15 15 17 15"/><polygon class="cls-2" points="14.29 16.13 13.65 18.01 12.78 18.13 11.71 16.88 11.36 16.02 11.6 15 12.8 11.87 13.17 14.5 13.51 15.54 14.29 16.13"/><polygon class="cls-2" points="17.97 13.88 18.64 15.87 19.56 16 20.69 14.68 20.62 13.31 19.54 9.37 19.15 12.16 18.79 13.26 17.97 13.88"/></svg>