<svg id="Layer_1" data-name="Layer 1" xmlns="http://www.w3.org/2000/svg" viewBox="0 0 801.46 864.16"><defs><style>.cls-1{fill:#34495e;}.cls-2{fill:#d9381e;}</style></defs><title>ea-logo-color</title><path class="cls-1" d="M341.21,531c0-2.33,1.17-4.66,1.75-7,0-2.32.58-4.07.58-5.82s-.58-2.91-.58-5.82c-1.75-6.41-1.17-8.74-5.24-13.39S329,489.63,322,489.63c-4.08,0-6.41.58-8.74.58q-5.24,0-5.24-5.24c0-5.24,5.82-7.57,12.23-7.57,7.57,0,18.63,14.56,21.54,14.56.59,0,1.17-.58,1.17-2.33,0-8.74-2.91-7-7-15.72-4.07-9.32-5.24-7-9.9-9.9s-2.91-4.66-14-11.65S296.37,446,296.37,443c0-1.74,1.17-2.33,3.5-2.33,8.15,0,26.78,9.32,25,7.57-14-11.64-18.64-16.88-18.64-21,0-4.66,9.9-3.49,9.9-5.24s-2.91-2.33-14.55-8.73c-7.57-4.66-7.57-4.66-20.39-9.32-6.4-1.75-9.89-4.08-16.3-4.08-7,0-12.81.58-17.47,2.33-11.06,4.08-23.29,11.07-27.37,17.47-2.91,5.24-7,7.57-7,11.65s-4.65,10.48-7,16.88c-.59,1.17-.59,3.5-.59,7.57,0,8.74,1.17,18.64,2.92,22.72,2.32,6.4,7,16.3,16.88,23.29,8.74,5.24,13.4,7.57,20.38,7.57,1.75,0,4.08-.58,6.41-.58,12.23-1.75,14.56-1.75,17.47-5.83,4.07-4.07,8.73-8.15,10.48-15.72,1.75-9.32,7-1.75,7-9.9,0-5.24-1.75-7.57-5.24-7.57-5.24,0-7,5.24-13.4,5.24-2.33,0-3.49-1.16-3.49-4.07,0-1.75,1.16-4.08,3.49-7.58,2.33-4.07,5.24-7,11.65-7,0-.59-9.32-6.41-11.65-6.41-2.33,2.33-10.48,2.91-13.39,7a15.46,15.46,0,0,0-3.49,9.32,8.64,8.64,0,0,0,.58,4.07,43.1,43.1,0,0,1,1.16,7c0,2.91-1.16,4.66-2.91,4.66-4.07,0-14-10.48-16.3-18.05,0-1.75-.59-1.75-.59-3.5,0-5.24,3.5-7.57,8.16-12.23,6.4-6.4,9.31-7,11.64-7,4.08,0,7.57-2.91,12.23-2.91,6.41,0,11.65,3.49,18.05,7.57,8.74,6.4,12.81,15.72,14.56,22.12,0,7.57-1.16,12.81-1.16,19.22,0,7-4.66,9.32-7,14.56-1.75,4.66-20.38,19.21-39,19.21s-29.11-1.16-44.83-12.22-15.73-21.55-19.8-33.78c-1.75-4.07-1.17-7-1.17-11.06,0-8.74,1.17-15.73,2.91-19.8,2.33-6.41,4.66-12.81,8.74-19.8s11.65-11.65,16.3-18.63c5.24-7,23.88-15.14,44.26-15.14,21.54,0,22.71,2.32,41.34,9.89,23.3,9.32,26.79,26.79,37.27,33.78,8.74,7,7.57,15.72,11.65,19.8,4.07,4.66,4.66,9.9,7,17.47,2.32,8.73,4.07,8.73,8.15,19.8a98.44,98.44,0,0,1,1.75,20.38c0,8.73,0,16.88-1.75,21-.58,2.91-2.33,4.08-6.41,4.08s-7-1.17-11.06-1.17C342.38,535.63,341.21,533.88,341.21,531Z"/><path class="cls-1" d="M305.11,577.56c-2.33,4.07-3.49,7.57-3.49,9.31s.58,3.5,1.16,6.41a12.26,12.26,0,0,0,7,8.15l5.24,1.75a7.81,7.81,0,0,1,3.49-4.08,19.42,19.42,0,0,1,7.57-4.07c1.75,0,1.17-.58,2.91-.58,7.57,0,7.57,7.57,9.9,8.15.59,0,.59.58.59,1.74a11.5,11.5,0,0,1-3.5,8.16c-2.33,4.07-9.32,7-21,7-20.38,0-27.37-14-30.28-23.29a43.31,43.31,0,0,1-1.17-7c0-4.65,1.17-9.31,5.83-15.72,4.07-5.24,11.64-8.73,19.21-12.81,6.41-4.08,9.32-4.08,20.38-4.66,8.74-1.74,14.56-.58,25.63-2.33a82.23,82.23,0,0,1,12.22-.58c8.74,0,18.06.58,24.46.58s21-.58,33.19-.58a122.74,122.74,0,0,1,15.73.58c13.39.59,30.28,0,46,4.08,8.73,1.75,17.47,5.82,22.13,15.72,4.07,7.57,3.49,11.65,3.49,16.31a52.17,52.17,0,0,1-1.16,6.4c-4.08,9.32-9.9,21.55-30.28,23.29-12.23,0-18.64-2.91-21.55-7a16.65,16.65,0,0,1-2.91-9.9c0-6.41,6.4-8.15,10.48-8.15,1.16,0,2.33,0,2.91.58a23,23,0,0,1,7,4.07l3.49,4.08,5.24-1.75c2.92-1.74,5.83-3.49,7.57-8.15a17.72,17.72,0,0,0,.59-5.82c0-4.08-1.17-5.24-2.92-9.9a16.15,16.15,0,0,0-14.55-9.32c-4.66,0-9.9-4.66-21-4.66-7.57,0-20.38-1.16-31.44-1.16-4.08,0-7.57.58-10.48.58-7.57,0-14.56-2.33-23.3-2.33-18.05,0-35.52,2.91-53.57,2.91-5.24,0-14,2.91-18.05,4.66C312.68,570.57,308,571.15,305.11,577.56Z"/><path class="cls-2" d="M373.24,475.07A43.36,43.36,0,0,1,375,463.42c.58-1.16.58-2.91.58-5.24,0-8.73-4.08-16.3-5.82-27.95-1.75-13.39,0-11.06-1.75-19.8s-3.49-9.9-8.74-19.79c-5.24-9.32-4.65-11.65-14-23.88-9.9-12.23-16.31-14-23.88-14-8.73,0-19.79,0-19.79-4.66,0-5.83,4.65-8.74,14.55-8.74,8.74,0,23.88,7,29.12,8.74,6.4,1.74,18.63,12.23,23.29,19.21s4.08,18.06,8.15,29.12c2.91,9.9.59,16.89,2.91,25.62,1.75,4.66,1.17,9.32,1.17,15.72s0,11.07,1.75,17.47a37.72,37.72,0,0,1,1.74,11.65c0,8.73-2.33,15.14-7,15.14C374.4,482.06,373.24,479.73,373.24,475.07Z"/><path class="cls-2" d="M312.68,366.18c4.07,0,8.73,2.33,8.73,7S315,379,308.6,379q-3.5,0-3.49-5.24c0-4.08,1.75-6.41,4.66-7C311.51,366.76,310.93,366.18,312.68,366.18Z"/><path class="cls-2" d="M357.52,448.87c-.59,0-1.75-1.17-2.33-3.5A6.44,6.44,0,0,1,354,443c-4.07-8.73-8.73-21-12.81-25.62s-3.49-11.06-7.57-17.47c-2.91-2.91-13.39-8.73-13.39-14,0-4.08,2.91-5.83,8.15-5.83,9.9,0,13.39,15.14,17.47,22.13,4.66,9.32,5.82,11.07,8.74,19.8,2.32,6.41,10.48,18.63,10.48,23.88,0,1.74-.58,2.32-2.33,2.32S358.1,448.87,357.52,448.87Z"/><path class="cls-2" d="M392.46,447.12c0-4.08.58-10.48.58-22.71,0-14-7-44.26-7-58.81,0-5.24-6.41-23.3-10.48-30.28s-12.81-14-14.56-25.63c-2.33-11.06-9.32-22.12-9.32-29.69,0-1.75.59-2.33.59-2.92,2.33-6.4,2.91-15.13,5.24-15.13.58,0,1.16.58,1.74,1.16,4.66,4.08,8.74,5.24,10.49,19.22.58,14,7.57,26.78,9.31,33.77s.58,14.56,7,21.54c1.17,1.17,1.75,1.75,2.33,1.75,2.33,0,4.66-8.73,4.66-22.71,0-14.56-1.75-25-3.5-34.94-2.32-9.9-7.57-16.88-10.48-23.87-4.07-6.41-12.23-13.4-12.23-24.46,0-14,4.08-19.22,12.81-25.62,7.58-6.41,11.07-8.15,15.73-14.56,5.24-6.4,9.31-11.64,9.31-22.71,0-5.24-1.74-7-1.74-8.73,0-9.9-23.88-13.4-23.88-27.37,0-8.15,4.08-17.47,11.65-27.95,4.66-6.41,5.24-8.74,5.24-12.81,0-1.75-.58-2.92-.58-5.24-1.75-9.32-2.33-12.81-4.08-16.89,0-4.08,2.91-12.81,7.57-12.81.58,0,1.17.58,1.75.58,4.07.58,7,7,7,14.56-.59,9.9,1.16,18-2.92,25-4.07,6.4-8.15,9.9-8.15,16.88,0,.59.58,2.92,1.17,5.83,2.91,11.06,5.82,12.23,9.9,18.63,4.65,7.57,2.32,2.91,7,14a21.11,21.11,0,0,1,1.75,9.31c0,4.66-1.16,7.57-1.75,14-1.74,9.9,1.17,11.06-2.91,15.72-4.66,4.66,1.17,2.91-7,9.32-9.31,8.15-8.73,5.24-15.14,14.56a32,32,0,0,0-5.82,18.63,45.54,45.54,0,0,0,2.33,15.14c1.17,4.08,1.75,6.41,2.33,6.41,1.16,0,3.49-14,4.66-18.06,0-1.74.58-2.32,1.75-2.32,4.07,0,9.89,7,9.89,14,0,4.66.59,13.39.59,24.46s-.59,22.13-2.92,30.86c-2.32,10.48-3.49,18.05-3.49,23.29,0,4.08,1.17,7,1.17,11.65,0,1.75,0,2.91.58,2.91,1.74,0,4.66-15.14,8.73-27.37,3.5-14.56,7.57-14.56,12.23-25,0-8.73,3.5-7,3.5-13.39q0-3.5-3.5-15.72c-5.24-16.31-14-30.28-14-40.18a11.29,11.29,0,0,1,1.74-5.83q2.63-5.24,7-5.24a5.8,5.8,0,0,1,5.82,5.83c0,4.07-1.74,8.15-1.74,14.55a48.53,48.53,0,0,0,1.16,7.57c2.91,7,7,9.9,9.32,21,1.75,11.06,6.4,21.54,6.4,30.86,0,8.73-11.64,29.7-18.63,50.66C411.09,362.1,407.6,365,407.6,383.65s-1.75,16.88-3.5,33.77c0,17.47-2.91,17.47-2.91,27.95,0,6.41-1.16,7-2.91,7s-2.33-.58-4.08-.58C393,451.78,392.46,450,392.46,447.12Z"/><path class="cls-2" d="M370.91,588.62c0,1.17,0,1.75-.58,2.33-1.75,4.08-4.66,5.82-7.57,5.82-1.75,0-2.91-.58-5.24-1.16s-3.5-2.91-3.5-5.82c0-4.08,2.33-7.57,7.57-8.16C366.25,581.63,370.91,584.55,370.91,588.62Z"/><path class="cls-2" d="M402.35,491.38c9.32.58,6.41,7.57,8.16,12.22,0,4.66-.59,4.66-.59,6.41a3.47,3.47,0,0,0,.59,2.33c1.74,2.33,1.74,8.73,5.82,13.39.58,1.75,1.17,2.33,1.17,2.91,0,1.75-1.75,2.33-5.83,2.33-2.91,0-4.66,0-6.4-.58-2.92-.58-5.24-1.16-5.83-1.16-1.74,0-3.49.58-5.24.58-2.91,0-5.24-1.17-9.31-1.17-2.33,0-5.25.59-8.16.59a4.93,4.93,0,0,1-3.49-1.17c-.58-1.16-.58-3.49-.58-7,0-2.91,0-4.66.58-6.4,2.33-4.66,1.75-5.24,5.82-9.32a9.92,9.92,0,0,0,1.17-2.91c0-1.75-1.75-2.91-1.75-5.24,0-4.08,2.91-7.57,8.15-7.57C393,489.63,393.62,489.63,402.35,491.38Z"/><path class="cls-2" d="M414.58,589.79c0,4.07-4.66,11.06-6.4,15.14-1.75,1.74-7,3.49-12.23,3.49a17.06,17.06,0,0,1-5.24-1.16c-4.08-2.33-11.65-4.66-11.65-12.23,0-8.74,8.74-18,17.47-18C404.1,577,414.58,585.13,414.58,589.79Z"/><path class="cls-2" d="M402.35,473.91a13.81,13.81,0,0,1-1.16,4.66c-.58,1.74-1.75,2.91-3.49,2.91s-3.5-1.17-6.41-4.08a9.43,9.43,0,0,1-1.75-5.24c0-4.08,2.92-8.15,7-8.74C400.61,463.42,402.35,469.25,402.35,473.91Z"/><path class="cls-2" d="M410.51,466.34a34.07,34.07,0,0,1,1.74-11.07c1.75-4.66,1.75-8.15,1.75-23.87a40.06,40.06,0,0,1,1.17-9.32c2.33-8.73.58-15.72,3.49-25.62,4.08-11.06,2.91-22.13,7.57-29.12,4.08-6.4,15.72-19.8,24.46-19.8,8.73-4.07,18.05-8.15,29.11-8.15,8.74,0,13.4,2.91,13.4,8.74,0,4.66-10.49,4.66-19.22,4.66s-14.56,1.74-24.46,14c-9.31,12.23-9.31,14-14,23.88-4.66,9.31-5.24,9.89-7,18.63-1.75,9.32-1.75,7-3.49,21-1.75,11.65-5.83,19.22-5.83,27.95,0,2.33,0,4.08.58,5.24a26.08,26.08,0,0,1,2.33,11.65c0,4.66-1.74,7-4.65,7C413.42,482.06,410.51,475.07,410.51,466.34Z"/><path class="cls-2" d="M445.45,592.7a4.91,4.91,0,0,1-1.17,3.49c-1.16,1.75-3.49,2.91-7,2.91a21.72,21.72,0,0,1-7-1.16c-1.75-.58-2.92-2.91-2.92-5.82,0-4.08,2.92-9.9,9.32-9.9S445.45,588,445.45,592.7Z"/><path class="cls-2" d="M430.31,446c0-5.25,7.57-17.47,9.9-23.88,4.07-8.73,5.24-12.81,10.48-21.55,5.24-9.31,7-19.79,14-19.79,6.41,0,9.9,1.74,9.9,5.24,0,6.4-9.32,8.73-13.39,14s-3.49,12.81-7.57,17.47-8.15,16.89-12.23,25.62c-.58,1.75-1.75,5.83-4.66,5.83a20.41,20.41,0,0,0-4.07-.59C430.89,448.28,430.31,447.7,430.31,446Z"/><path class="cls-1" d="M439,536.8c-4.08,0-5.82-1.17-6.4-4.08-1.75-4.08-2.33-12.81-2.33-21.55,0-7.57.58-15.14,2.33-19.79,2.91-11.07,5.24-11.07,7.57-19.8,2.32-7.57,2.91-12.81,7-17.47,4.08-4.08,2.92-12.81,11.65-19.8,9.9-6.41,15.14-24.46,37.27-33.78,18-7.57,18.63-9.89,40.18-9.89s40.76,7.57,46,15.14c5.24,7,12.23,11.64,16.3,18.63s5.83,13.39,8.16,19.8c1.74,4.07,2.91,11.06,2.91,19.8,0,4.07.58,7-1.17,11.06,0,1.75-1.16,2.91-1.16,4.66-2.91,11.06-4.66,19.8-18.05,29.12-15.72,11.06-26.79,12.22-45.42,12.22s-37.27-14.55-39-19.21c-1.75-5.24-7-7.57-7-14.56,0-5.24-1.16-9.9-1.16-14.56a11.43,11.43,0,0,1,.58-4.66c.58-6.4,6.41-16.88,14-22.12,6.4-4.08,11.64-7.57,18-7.57,4.08,0,8.15,2.91,12.23,2.91,2.33,0,5.24.58,11.64,7,4.66,4.66,8.16,7,8.16,12.23,0,1.75-.59,1.75-.59,3.5-2.33,7.57-12.22,18.05-16.3,18.05-1.75,0-2.33-1.75-2.33-4.66,0-2.33.58-4.08,1.16-10.48,0-4.08-1.16-7.57-3.49-9.9-1.75-2.33-9.32-7-13.39-7-1.17,0-3.5,1.17-6.41,3.5-1.74,1.16-2.91,2.32-4.66,2.91h1.75c2.33,0,7,.58,9.9,7,1.75,2.92,2.91,5.83,2.91,7.58s-2.33,4.07-2.91,4.07a2.14,2.14,0,0,1-1.75.58c-2.33,0-4.07-3.49-8.73-5.24-.58-.58-1.75-.58-3.5-.58-2.91,0-4.65,2.33-4.65,7.57,0,7.57,5.24.58,7,9.9,1.75,7.57,7,11.65,9.9,15.72s4.66,4.08,18,5.83c2.33,0,4.66.58,6.41.58,7,0,12.23-2.33,19.8-7.57,11.06-7,15.14-16.89,17.47-23.29,1.74-4.08,2.91-14.56,2.91-23.3,0-3.49,0-5.82-.58-7-2.33-6.4-7-12.81-7-16.88s-4.08-7-7-11.65c-4.07-6.4-16.3-13.39-27.37-17.47-5.24-1.75-11.06-2.33-18-2.33-7.57,0-13.39.58-18.63,2.33-12.23,4.66-10.48,6.41-18.05,11.07-11.07,5.24-14,7.57-14,8.15,0,1.75,7-.58,7,4.07,0,4.08-3.5,9.9-16.89,23.3,1.17,0,18.05-8.16,25.62-8.16,2.33,0,3.5.59,3.5,2.33,0,2.92-4.08,2.33-15.14,9.32s-9.32,8.74-14,11.65-6.4.58-10.48,9.9c-4.08,8.73-7,7-7,15.72,0,1.75.58,2.33,1.17,2.33,3.49,0,14.55-14.56,23.29-14.56,7,.58,10.48,2.33,10.48,6.41,0,1.74,0,2.91-.58,3.49a6.11,6.11,0,0,1-5.24,2.91c-2.33,0-4.08-.58-8.16-.58-7,0-11.06,4.66-15.13,9.32s-4.08,7-5.83,13.39a19.86,19.86,0,0,0-.58,5.82,18,18,0,0,0,.58,5.82c.58,2.33,1.75,5.25,1.75,7.58,0,2.91-1.17,4.07-4.08,4.07S443.12,536.8,439,536.8Z"/><path class="cls-2" d="M489.7,373.17c0,4.07-1.16,5.82-3.49,5.82-4.66,0-12.23,0-12.23-6.41,0-4.07,2.91-6.4,8.15-6.4,1.75,0,1.75.58,3.5.58C488.54,367.34,489.7,369.09,489.7,373.17Z"/><path class="cls-1" d="M64.18,657.17c0,2.12-.3,3.5-.9,4.15a3.57,3.57,0,0,1-2.75,1l-.85-.43-1-.66-1.13-.66a45.89,45.89,0,0,0-6.38-2.61,26.71,26.71,0,0,0-8.79-1.66,6.52,6.52,0,0,0-5.94,2.94q-1.87,2.94-1.88,12.08a5.55,5.55,0,0,0,1.61,4.17A6.11,6.11,0,0,0,40.63,677a12.8,12.8,0,0,0,6.28-2q3.44-2,4.88-2c1,0,1.81.64,2.54,1.92a9.17,9.17,0,0,1,1.09,4.57c0,4.77-.53,7.71-1.57,8.81l-1.28.71a7.11,7.11,0,0,1-4.45-1.27c-2.44-1.87-4.22-2.8-5.36-2.8q-5.4,0-7.25,2.27-.9,1.14-.9,7.8t2.7,10.12c.95,1.23,3,1.84,6.26,1.84s7.33-1.09,12.34-3.29,7.88-3.29,8.6-3.29q2,0,2,3.84V706a10.89,10.89,0,0,1-1,3.7,7.84,7.84,0,0,1-2.93,3.7q-2,1.32-6.54,1.32H21.77q-7.87,0-7.87-2v-1.51c0-1.08,1-2.15,2.92-3.23s3.08-2.23,3.41-3.48.5-8.5.5-21.77-.23-20.79-.67-22.56a9.43,9.43,0,0,0-3.31-4.88q-2.65-2.22-2.66-4.41c0-1,1.14-1.63,3.41-1.78s9.75-.21,22.42-.21l12.32,0h2c3.19,0,5.43.45,6.73,1.37C63.11,651.68,64.18,654,64.18,657.17Z"/><path class="cls-1" d="M133.7,707.14q0,5-.59,5.83c-.4.59-1.4.88-3,.88-.54,0-1.88-.59-4-1.78a19.77,19.77,0,0,1-5.83-5q-1.09-1.32-14-20.23T91,667.93q-1,0-.95,12.87a130.72,130.72,0,0,0,1.85,23.14,11.26,11.26,0,0,0,1.82,4.7,5.53,5.53,0,0,1,1.3,3l-.37,1.09c-.92,1.08-4,1.61-9.1,1.61h-2c-4.08,0-6.49-.3-7.25-.9a3.23,3.23,0,0,1-1.14-2.7c0-.66.88-1.52,2.63-2.58s2.8-2.11,3.15-3.15q.28-.86.29-8.44l.09-2.27.14-6.83c.1-4.51.15-9.66.15-15.42s-.22-9.38-.64-10.85a8.81,8.81,0,0,0-3.49-4.32q-2.84-2.1-2.84-3.83a3,3,0,0,1,1.35-2.66q1.35-.92,5.24-.92h2.13q7.68,0,13.65,6.49t15.94,21q10,14.51,11.5,14.5,1.8,0,1.8-18.67,0-13.87-3.09-17.48c-1.16-1.39-1.75-2.36-1.75-2.89q0-2.14,4.31-2.14,8.62,0,11.87.74t3.25,3q0,1.38-2.82,4.25t-3.1,4q-.28,1.17-.29,11l-.61,22-.05,2.09-.1,2.08Q133.7,702.19,133.7,707.14Z"/><path class="cls-1" d="M203.41,661.06q0,4.79-2.8,4.78-1.23,0-5.87-3.69A41.81,41.81,0,0,0,187,657a16.34,16.34,0,0,0-7.06-1.45h-.14a14.42,14.42,0,0,0-7.35,2q-9.86,5.73-9.85,24.64a33,33,0,0,0,1.7,10.52q5,15.12,19.05,15.12h.1q6.43,0,13.36-4.84,4.45-3.07,5.12-3.08c1.55,0,2.32.73,2.32,2.18v1.19c0,.73-.73,2.19-2.2,4.41a14,14,0,0,1-5.9,5,35.8,35.8,0,0,1-15.17,3h-1.61a31.55,31.55,0,0,1-12.79-2.55,29.28,29.28,0,0,1-16.12-16.92A34.21,34.21,0,0,1,148.06,684v-3.31a34.11,34.11,0,0,1,2.32-12.09q4.78-12.75,16.4-17.77a30.12,30.12,0,0,1,12.08-2.65h1.56q15,0,19.81,2.84Q203.41,652.86,203.41,661.06Z"/><path class="cls-1" d="M249.75,702.43a9.74,9.74,0,0,0,1.62,5.87,25.18,25.18,0,0,0,2.13,2.42,4.16,4.16,0,0,1,1.47,2.47q0,2.74-4.51,2.74c-.91,0-2,0-3.17-.14l-3-.28q-2.88-.19-7.44-.19a41.37,41.37,0,0,1-6.11-.29c-1-.19-1.51-.73-1.51-1.63s.84-2.2,2.53-3.89a17.65,17.65,0,0,0,3.44-4.4q.9-1.87.9-8A23.46,23.46,0,0,0,233,685.42q-10.75-19.11-14.93-24.69a18.61,18.61,0,0,0-4.26-3.75c-2.09-1.45-3.13-2.86-3.13-4.21a2.91,2.91,0,0,1,2.23-2.85q3.31-1.23,13.6-1.23h1.61c4.52,0,6.77,1.14,6.77,3.41l-.19,1-.23,1a20.37,20.37,0,0,0-.43,3q0,3.25,7.49,18,2,4,3,4,1.86,0,7.73-10.52c2-3.6,3-6.18,3-7.72a10.83,10.83,0,0,0-1.11-4.67,9.27,9.27,0,0,1-1.12-3.53c0-1.39.81-2.32,2.42-2.8q3.65-1.08,11.8-1.09,5.92,0,5.92,2.42a5.18,5.18,0,0,1-2.27,4.5q-4.17,2.94-5.36,4.74A195.34,195.34,0,0,0,253,683.71Q249.76,690.49,249.75,702.43Z"/><path class="cls-1" d="M332.78,661.06q0,4.79-2.8,4.78-1.23,0-5.87-3.69a41.81,41.81,0,0,0-7.73-5.14,16.34,16.34,0,0,0-7.06-1.45h-.14a14.42,14.42,0,0,0-7.35,2Q292,663.33,292,682.24a33,33,0,0,0,1.7,10.52q5,15.12,19.05,15.12h.1q6.44,0,13.36-4.84,4.46-3.07,5.12-3.08c1.55,0,2.32.73,2.32,2.18v1.19c0,.73-.73,2.19-2.2,4.41a14,14,0,0,1-5.9,5,35.8,35.8,0,0,1-15.17,3h-1.61A31.55,31.55,0,0,1,296,713.19a29.28,29.28,0,0,1-16.12-16.92A34.21,34.21,0,0,1,277.43,684v-3.31a34.11,34.11,0,0,1,2.32-12.09q4.78-12.75,16.4-17.77a30.12,30.12,0,0,1,12.08-2.65h1.56q15,0,19.81,2.84Q332.78,652.86,332.78,661.06Z"/><path class="cls-1" d="M369.6,651.68q0,.62-2.92,3.9a14.59,14.59,0,0,0-3.46,5.57q-.54,2.28-.54,21.73t.54,21.49a3.91,3.91,0,0,0,2.3,2.77,17.22,17.22,0,0,0,6,.74,16.69,16.69,0,0,0,7.46-1.57,24.24,24.24,0,0,0,6.9-5.59c2.46-2.68,4.58-4,6.35-4,1.36,0,2,.86,2,2.56v1.24a31.4,31.4,0,0,1-1.14,7.89q-1.14,4.33-1.8,5-1.47,1.36-7.11,1.37H358.79q-12.46,0-13.79-.24a2.41,2.41,0,0,1-2.27-2.55q0-1.14,2.51-3.65a13.32,13.32,0,0,0,3.46-6.54q.38-1.62.38-21.23T348.51,659c-.38-1.26-1.59-2.54-3.65-3.84s-3.08-2.74-3.08-4.35q0-1.95,9.24-1.95h12.56a13.55,13.55,0,0,1,4.86.55A2.28,2.28,0,0,1,369.6,651.68Z"/><path class="cls-1" d="M399.5,682.34a41.06,41.06,0,0,1,2.32-14q4.5-12.6,15.78-17.49A33.33,33.33,0,0,1,431,648l1.13,0h1.09a29.08,29.08,0,0,1,11.42,2.51,28.4,28.4,0,0,1,10.12,7.13,31.59,31.59,0,0,1,6.38,10.76,37,37,0,0,1,2.18,12.44V682a39.26,39.26,0,0,1-2.4,13.67A31.31,31.31,0,0,1,454,706.79q-9.11,9.44-24.12,9.48A31,31,0,0,1,418,713.92a26.06,26.06,0,0,1-9.55-6.56Q399.51,697.4,399.5,682.34Zm47.63,2V681.2a43.46,43.46,0,0,0-1.28-10.14q-2.57-10.57-9-14.65a12.27,12.27,0,0,0-6.63-1.8h-.71a12.67,12.67,0,0,0-6.31,1.85q-6.26,3.6-8.57,12.7a45.13,45.13,0,0,0-1.47,11.33v1.61A42.72,42.72,0,0,0,414.57,693q2.85,10.66,9.76,14.79a11.28,11.28,0,0,0,5.88,1.71h1.42a11.52,11.52,0,0,0,6.21-1.88,14.82,14.82,0,0,0,4.88-5Q447.13,695.27,447.13,684.37Z"/><path class="cls-1" d="M472.67,712.29a6,6,0,0,1,2.79-5.19,6.87,6.87,0,0,0,3.23-4.29q.66-3.75.66-21.37t-.85-21.16q-.86-3.54-2.42-4.86c-2.28-1.9-3.41-3.13-3.41-3.7V651q0-1.94,3.55-2.46,1-.13,10.1-.14l6.25-.1h1.23l3.75.15h3.79q16.77,0,22.36,10.37a17.56,17.56,0,0,1,2.14,8.44v1.33A17.74,17.74,0,0,1,520,682q-5.84,5.47-16.45,6.42-6.26.57-7.06,1-3.17,1.42-3.17,10.57a8,8,0,0,0,2.94,6.58q3.93,3.18,3.93,5.36c0,1.14-1.21,1.93-3.62,2.37a62.84,62.84,0,0,1-10.5.66Q472.67,714.89,472.67,712.29Zm19.38-33.22c0,1.8.32,3,1,3.67s2.09,1,4.34,1h2.27a9.94,9.94,0,0,0,8-3.65q3.09-3.64,3.08-10.33l0-.47q0-6.74-3.51-10.57a11.54,11.54,0,0,0-8.91-3.84H497q-4,0-4.69,1.94a49.57,49.57,0,0,0-.23,7.16v7.2l-.05,1.8Z"/><path class="cls-1" d="M559.63,692.86q-8.4,0-10.69,1.7a11.94,11.94,0,0,0-3.74,5.81,20.44,20.44,0,0,0-1.45,5.92,8.71,8.71,0,0,0,.47,3.06l.71,1.37a6.74,6.74,0,0,1,.76,2.47q0,1.69-7.2,1.7-13.22,0-13.22-2.42c0-1.35,1.7-3.36,5.12-6q2.42-1.9,5.59-7.44,17.87-31.14,19.55-34.53a15.8,15.8,0,0,0,1.68-7.13l-.38-1.66-.38-1.42A3.29,3.29,0,0,1,559,651q1.14-.37,24.12-.37l10-.05h2.51q7,0,9.53,3.08,1.7,2,1.7,6.44t-2.08,4.41q-2.09,0-7-3.18a21.76,21.76,0,0,0-12-3.17q-2.61,0-4.41,4.31A19.78,19.78,0,0,0,580.1,670q0,4.62,1.56,6.28a5.33,5.33,0,0,0,4.08,1.66,10.5,10.5,0,0,0,4.45-.9l1.56-.95a10,10,0,0,1,3-1.56,3.24,3.24,0,0,1,3,1.35c.57.9.86,2.56.86,5a16.19,16.19,0,0,1-.76,5.59c-.82,2.08-1.87,3.13-3.13,3.13a11.43,11.43,0,0,1-3.89-1.14,12,12,0,0,0-4.64-1.14,5.9,5.9,0,0,0-3.93,1.75c-.79.73-1.19,2.48-1.19,5.27a17.42,17.42,0,0,0,2.75,8.81c1.33,2.24,2.95,3.36,4.88,3.36a34.5,34.5,0,0,0,10.57-2l1.94-.72q5.26-2.22,6-2.22c1.67,0,2.51,1.06,2.51,3.17v1.76a6.19,6.19,0,0,1-1.56,3.46,12.48,12.48,0,0,1-5.07,3.53q-3.51,1.49-12.28,1.49h-5.07l-2.56-.05h-2.55q-14.13,0-15.9-.83c-1.19-.55-1.78-1.66-1.78-3.34l.62-1.42.9-1.47,1.09-1.52a13.28,13.28,0,0,0,1.47-6.51q0-3.87-1.5-5.4C564.58,693.37,562.59,692.86,559.63,692.86Zm7-18.86q0-12-.69-12c-.46,0-1.47,1.46-3,4.36s-2.68,4.93-3.34,6.07-2,3.64-4.12,7.51-3.13,5.82-3.13,5.85c0,.35,1,.52,3.08.52h7.86l.34,0h.66l1.28-.1c.88,0,1.33-.36,1.33-1.09v-.71l0-.33v-2l-.05-.66v-1.33l0-.71v-1.33l0-.66V676l-.05-.71Z"/><path class="cls-1" d="M620.47,655.37c-1.8-.91-2.7-2-2.7-3.29s.76-2.05,2.27-2.3q6.4-1.1,22-1.09h2.51q16.54,0,26,8.7t9.48,23.9q0,15.21-9.48,24.41t-25.12,9.19h-3.74l-1.23,0-2.56,0c-.82,0-1.63,0-2.42,0l-10.61-.33c-3.54,0-5.64-.21-6.28-.62a2.64,2.64,0,0,1-1-2.42c0-.69.91-1.65,2.74-2.86a7.79,7.79,0,0,0,3.46-4.34q.72-2.5.71-16.68l-.09-6.06.14-7.16.05-1.19c0-.82,0-1.62,0-2.41l.09-3.56q0-6.43-1-8.81A6.84,6.84,0,0,0,620.47,655.37Zm43.93,28.48v-3.22a35.59,35.59,0,0,0-1.37-9.81q-2.94-10.19-10.95-13.74a19.39,19.39,0,0,0-8-1.61l-.66,0q-5.41,0-6.07,2.42-.15.52-.14,14.17v18.2l0,.71v1.42l-.14,5v1.42l0,2.13v.76q0,4,1,5.26t5.08,1.28h2.84a15.26,15.26,0,0,0,7.6-2,17.94,17.94,0,0,0,5.76-4.91,25.9,25.9,0,0,0,3.63-7.53A32.55,32.55,0,0,0,664.4,683.85Z"/><path class="cls-1" d="M695,714Q689,714,689,712.1T692.1,708a8.94,8.94,0,0,0,3.86-5q.7-2.75.71-21.73t-.38-20.45a8.34,8.34,0,0,0-3.22-5q-4.3-3-4.31-4.74v-.66q0-1.71,11.94-1.71l3.22-.14h3.22l1.09,0h1.09a29.19,29.19,0,0,1,6.57.41c.77.27,1.16,1.08,1.16,2.44q0,1.23-3.51,4.07A7.87,7.87,0,0,0,711,660q-.66,2.89-.66,22.32t.52,21.56q.52,2.13,3.41,4.6t2.89,4.07c0,1.27-1.26,1.9-3.79,1.9H710l-1.09,0h-2.23l-3.22-.09-4.27-.1-2.08-.09C696.45,714.05,695.74,714,695,714Z"/><path class="cls-1" d="M755.05,648.79h1.38q3.51,0,7.86,7.48a83.62,83.62,0,0,1,4.55,10.81q3,8.19,5.22,13.6t4.76,12.86q2.58,7.47,3.74,9.91a13.12,13.12,0,0,0,4.15,4.66q3,2.24,3,3.87c0,1.09-.68,1.81-2,2.15q-3.31.81-16.45.81-6,0-6-2.56a14.25,14.25,0,0,1,1-3.25,12.64,12.64,0,0,0,.95-3.81,16.58,16.58,0,0,0-2.8-9.81q-1.14-1.6-7.15-1.61-11.06,0-12.49.71t-2.94,3.6a11.84,11.84,0,0,0-1.49,5.36,12.41,12.41,0,0,0,1.35,5.3,11.4,11.4,0,0,1,1.35,4.46c0,1.32-1.42,2-4.26,2-6.77,0-11.28-.32-13.56-1a2.86,2.86,0,0,1-2.18-3.08q0-.33,4.31-4.12a14.84,14.84,0,0,0,3.8-5.45q10.23-24.4,13-35.38t4.72-14.26A6.69,6.69,0,0,1,755.05,648.79ZM745.72,686v.48c0,.37,1.47.56,4.41.56h5.45c4.32,0,6.49-.25,6.49-.75q0-2-4-12.51t-4.15-10.48-4.14,10.5Q745.71,684.33,745.72,686Z"/><path class="cls-1" d="M223.83,736.13h1.38c2.33,0,5,2.5,7.86,7.49a83.93,83.93,0,0,1,4.55,10.8q3,8.21,5.21,13.6t4.77,12.87c1.72,5,3,8.28,3.74,9.9a13,13,0,0,0,4.15,4.67c2,1.49,3,2.77,3,3.86s-.68,1.81-2,2.16q-3.31.81-16.44.8-6,0-6-2.55a14,14,0,0,1,.95-3.25,12.62,12.62,0,0,0,.95-3.82,16.65,16.65,0,0,0-2.8-9.8c-.76-1.08-3.14-1.62-7.16-1.62q-11,0-12.48.72t-2.94,3.6a11.68,11.68,0,0,0-1.49,5.35,12.48,12.48,0,0,0,1.35,5.31,11.36,11.36,0,0,1,1.35,4.45q0,2-4.27,2-10.14,0-13.55-.94a2.86,2.86,0,0,1-2.18-3.08q0-.33,4.31-4.13a14.62,14.62,0,0,0,3.79-5.45q10.25-24.4,13-35.37t4.72-14.27A6.71,6.71,0,0,1,223.83,736.13Zm-9.33,37.25v.47c0,.38,1.47.57,4.4.57h5.45q6.5,0,6.5-.76,0-2-4-12.51t-4.15-10.47-4.15,10.49Q214.5,771.67,214.5,773.38Z"/><path class="cls-1" d="M323.92,794.49q0,4.95-.6,5.83c-.39.58-1.39.87-3,.87-.53,0-1.88-.59-4-1.77a19.92,19.92,0,0,1-5.83-5q-1.09-1.33-14-20.24t-15.26-18.9q-.94,0-.95,12.86a131.71,131.71,0,0,0,1.85,23.15A11.35,11.35,0,0,0,283.9,796a5.56,5.56,0,0,1,1.3,3l-.38,1.09q-1.38,1.61-9.1,1.61h-2q-6.1,0-7.25-.9a3.25,3.25,0,0,1-1.13-2.7c0-.67.87-1.53,2.63-2.59s2.8-2.1,3.15-3.15q.29-.86.28-8.43l.1-2.28.14-6.82q.13-6.78.14-15.43t-.64-10.85a8.76,8.76,0,0,0-3.48-4.31c-1.9-1.41-2.84-2.68-2.84-3.84a3,3,0,0,1,1.35-2.65q1.35-.93,5.23-.93h2.14q7.67,0,13.64,6.5t15.95,21q10,14.51,11.49,14.5,1.8,0,1.8-18.67,0-13.89-3.08-17.49c-1.17-1.39-1.75-2.35-1.75-2.89q0-2.13,4.31-2.13,8.63,0,11.87.73c2.16.49,3.25,1.51,3.25,3.06q0,1.38-2.82,4.24c-1.88,1.91-2.92,3.26-3.11,4s-.28,4.45-.28,11l-.62,22,0,2.08-.1,2.09Q323.92,789.54,323.92,794.49Z"/><path class="cls-1" d="M372.3,794.94q9.81,0,9.81-9.9,0-5.31-1.61-7.35c-1.84-2.37-2.75-3.79-2.75-4.27q0-2.79,8.86-2.79a46.74,46.74,0,0,1,10.33.9c1.77.41,2.65,1.31,2.65,2.7a6.1,6.1,0,0,1-1.16,3,9.14,9.14,0,0,0-1.35,3q-.18,1.14-.68,6c-.34,3.24-.52,5-.55,5.24q-.62,4.37-2.35,5.92a15.41,15.41,0,0,1-5.85,2.8,56.28,56.28,0,0,1-16.16,2.61H369.6a33.16,33.16,0,0,1-12.8-2.56,28.16,28.16,0,0,1-16.3-16.73,37.39,37.39,0,0,1-2.27-13.08v-2a33.42,33.42,0,0,1,2.65-13q5.4-13,17.77-17.72a35.88,35.88,0,0,1,12.89-2.18,37.88,37.88,0,0,1,5.31.43,57.68,57.68,0,0,0,7.7.43,12.16,12.16,0,0,1,7.44,2.06q2.77,2.06,2.77,7.32,0,7.25-2.84,7.25c-.89,0-3-1.23-6.26-3.7a42,42,0,0,0-7.58-4.83,18,18,0,0,0-7-1.14,15.43,15.43,0,0,0-7.87,2.13q-10.43,6.25-10.43,23,0,11.9,5.64,19.15T372.3,794.94Z"/><path class="cls-1" d="M436.56,736.13h1.37q3.51,0,7.87,7.49a83.93,83.93,0,0,1,4.55,10.8q3,8.21,5.21,13.6t4.76,12.87c1.72,5,3,8.28,3.75,9.9a12.93,12.93,0,0,0,4.14,4.67c2,1.49,3,2.77,3,3.86s-.68,1.81-2,2.16q-3.32.81-16.44.8-6,0-6-2.55a13.73,13.73,0,0,1,.94-3.25,12.32,12.32,0,0,0,.95-3.82,16.64,16.64,0,0,0-2.79-9.8q-1.14-1.62-7.16-1.62-11,0-12.49.72t-2.94,3.6a11.81,11.81,0,0,0-1.49,5.35,12.48,12.48,0,0,0,1.35,5.31,11.36,11.36,0,0,1,1.35,4.45q0,2-4.26,2-10.14,0-13.55-.94a2.85,2.85,0,0,1-2.18-3.08c0-.22,1.43-1.6,4.31-4.13a14.74,14.74,0,0,0,3.79-5.45q10.23-24.4,13-35.37t4.71-14.27A6.73,6.73,0,0,1,436.56,736.13Zm-9.34,37.25v.47q0,.57,4.41.57h5.45q6.5,0,6.49-.76,0-2-4-12.51c-2.68-7-4.07-10.47-4.14-10.47s-1.47,3.5-4.15,10.49S427.22,772.24,427.22,773.38Z"/><path class="cls-1" d="M501.29,736.32h3.22q12.13,0,19,4.64A14.92,14.92,0,0,1,530.29,754a17,17,0,0,1-2,8.39,21.19,21.19,0,0,1-4,5.45q-4.63,4.22-4.64,4.6a9.94,9.94,0,0,0,1.73,4.64q1.73,2.89,4,6.92a57.65,57.65,0,0,0,3.17,5.31,13.75,13.75,0,0,0,5.36,4.59q5.16,2.23,5.16,3.32c0,2-.85,3.29-2.56,3.79a29.76,29.76,0,0,1-8.53,1.09,10.52,10.52,0,0,1-7.86-3q-3-3.06-6.92-11.24c-2.63-5.44-4.31-8.64-5.07-9.59a7.48,7.48,0,0,0-6.21-3.08,2.79,2.79,0,0,0-2.82,2.06q-.74,2.06-.74,10.26,0,2,2,6.25l1.76,3.18a14.93,14.93,0,0,1,1.28,2.65q0,2.48-7.73,2.47-13.45,0-15.76-.67c-1.53-.44-2.29-1.32-2.29-2.65s1-2.57,2.89-3.74a7.08,7.08,0,0,0,3.5-4.15q.61-2.39.62-20.8t-.71-21.59a9.74,9.74,0,0,0-2.56-5q-3.31-3.22-3.32-4.13,0-1.89,4-2.46T501.29,736.32Zm2.23,6.3h-1.47c-2.15,0-3.45.3-3.91.88s-.69,2.11-.69,4.57v17.2a3.74,3.74,0,0,0,.81,2.71c.53.53,1.72.8,3.55.8h1.85l.38,0,1.09,0a6.07,6.07,0,0,1,.71-.05q3.36,0,6.56-3.2a11.28,11.28,0,0,0,3.2-8.36V754.8a12.37,12.37,0,0,0-3.22-8.65A11.41,11.41,0,0,0,503.52,742.62Z"/><path class="cls-1" d="M574.13,736.13h1.37q3.51,0,7.87,7.49a85.45,85.45,0,0,1,4.55,10.8q3,8.21,5.21,13.6t4.76,12.87c1.72,5,3,8.28,3.74,9.9a13.06,13.06,0,0,0,4.15,4.67c2,1.49,3,2.77,3,3.86s-.68,1.81-2,2.16q-3.32.81-16.44.8-6,0-6-2.55a14,14,0,0,1,1-3.25,12.62,12.62,0,0,0,1-3.82,16.57,16.57,0,0,0-2.8-9.8c-.75-1.08-3.14-1.62-7.15-1.62q-11,0-12.49.72t-2.94,3.6a11.81,11.81,0,0,0-1.49,5.35,12.48,12.48,0,0,0,1.35,5.31,11.36,11.36,0,0,1,1.35,4.45q0,2-4.26,2-10.14,0-13.56-.94a2.86,2.86,0,0,1-2.18-3.08q0-.33,4.32-4.13a14.74,14.74,0,0,0,3.79-5.45q10.23-24.4,13-35.37t4.71-14.27A6.73,6.73,0,0,1,574.13,736.13Zm-9.34,37.25v.47q0,.57,4.41.57h5.45c4.32,0,6.49-.25,6.49-.76q0-2-4-12.51T573,750.68c-.07,0-1.46,3.5-4.14,10.49S564.79,772.24,564.79,773.38Z"/><path class="cls-2" d="M660.92,754.06a25.87,25.87,0,0,1,12.91,3.06,72.93,72.93,0,0,1,12.52,9.46c2.33,2.07,4.12,3.61,5.39,4.61a23.45,23.45,0,0,0,4.65,2.82,12.61,12.61,0,0,0,5.39,1.31q5.54,0,14.27-6.7l3.49-2.71a2.87,2.87,0,0,1,1.55-.78c.39,0,.81.32,1.27,1a3,3,0,0,1,.67,1.55q0,.58-1.26,1.65L718.28,772q-8.53,6.69-14.7,9.27a31.13,31.13,0,0,1-12,2.57,25.93,25.93,0,0,1-12.91-3.06,73.32,73.32,0,0,1-12.52-9.46q-3.49-3.11-5.38-4.61a24.33,24.33,0,0,0-4.66-2.81,12.47,12.47,0,0,0-5.39-1.31q-5.54,0-14.27,6.69L633,772a2.81,2.81,0,0,1-1.55.78c-.39,0-.81-.33-1.26-1a3.08,3.08,0,0,1-.68-1.56q0-.59,1.26-1.65l3.49-2.71q8.55-6.7,14.71-9.27A30.92,30.92,0,0,1,660.92,754.06Z"/><path class="cls-2" d="M140.45,754.06a30.92,30.92,0,0,1,12,2.58q6.16,2.57,14.7,9.27l3.5,2.71q1.26,1.07,1.26,1.65a3.08,3.08,0,0,1-.68,1.56c-.45.64-.87,1-1.26,1a2.81,2.81,0,0,1-1.55-.78l-3.5-2.72q-8.73-6.69-14.26-6.69a12.79,12.79,0,0,0-7,2.08,73.4,73.4,0,0,0-8.4,6.65,72.54,72.54,0,0,1-12.52,9.46,25.86,25.86,0,0,1-12.9,3.06,31.09,31.09,0,0,1-12-2.57q-6.17-2.58-14.7-9.27l-3.5-2.72q-1.26-1.06-1.26-1.65A3,3,0,0,1,79,766.1c.46-.65.87-1,1.26-1a2.86,2.86,0,0,1,1.56.78l3.49,2.71q8.73,6.71,14.27,6.7a12.76,12.76,0,0,0,7-2.09,72.29,72.29,0,0,0,8.4-6.65,72.54,72.54,0,0,1,12.52-9.46A25.87,25.87,0,0,1,140.45,754.06Z"/></svg>